<?xml version="1.0" encoding="utf-8"?>
<!-- Generator: Adobe Illustrator 19.2.0, SVG Export Plug-In . SVG Version: 6.00 Build 0)  -->
<svg xmlns="http://www.w3.org/2000/svg" xmlns:xlink="http://www.w3.org/1999/xlink" version="1.1" id="loading" x="0px" y="0px" viewBox="0 0 180 208.1775" enable-background="new 0 0 180 208.1775" xml:space="preserve" width="512" height="512">
<g>
	<path fill="#D0E8FF" d="M16,92.1775c4.4102,0,8-3.5879,8-8s-3.5898-8-8-8s-8,3.5879-8,8S11.5898,92.1775,16,92.1775z"/>
	<path fill="#D0E8FF" d="M20,136.1775c-6.6172,0-12,5.3828-12,12s5.3828,12,12,12s12-5.3828,12-12S26.6172,136.1775,20,136.1775z"/>
	<path fill="#D0E8FF" d="M80,64.1775c15.4375,0,28-12.5605,28-28s-12.5625-28-28-28s-28,12.5605-28,28S64.5625,64.1775,80,64.1775z"/>
	<path fill="#D0E8FF" d="M76,168.1775c-8.8242,0-16,7.1777-16,16s7.1758,16,16,16s16-7.1777,16-16S84.8242,168.1775,76,168.1775z"/>
	<path fill="#D0E8FF" d="M132,132.1775c-11.0273,0-20,8.9727-20,20s8.9727,20,20,20s20-8.9727,20-20S143.0273,132.1775,132,132.1775   z"/>
	<path fill="#D0E8FF" d="M148,56.1775c-13.2344,0-24,10.7656-24,24s10.7656,24,24,24s24-10.7656,24-24S161.2344,56.1775,148,56.1775   z"/>
	<path fill="#1C71DA" d="M80,72.1775c19.8516,0,36-16.1504,36-36s-16.1484-36-36-36s-36,16.1504-36,36S60.1484,72.1775,80,72.1775z    M80,8.1775c15.4375,0,28,12.5605,28,28s-12.5625,28-28,28s-28-12.5605-28-28S64.5625,8.1775,80,8.1775z"/>
	<path fill="#1C71DA" d="M148,48.1775c-17.6445,0-32,14.3555-32,32s14.3555,32,32,32s32-14.3555,32-32S165.6445,48.1775,148,48.1775   z M148,104.1775c-13.2344,0-24-10.7656-24-24s10.7656-24,24-24s24,10.7656,24,24S161.2344,104.1775,148,104.1775z"/>
	<path fill="#1C71DA" d="M132,124.1775c-15.4375,0-28,12.5605-28,28s12.5625,28,28,28s28-12.5605,28-28   S147.4375,124.1775,132,124.1775z M132,172.1775c-11.0273,0-20-8.9727-20-20s8.9727-20,20-20s20,8.9727,20,20   S143.0273,172.1775,132,172.1775z"/>
	<path fill="#1C71DA" d="M76,160.1775c-13.2344,0-24,10.7656-24,24s10.7656,24,24,24s24-10.7656,24-24S89.2344,160.1775,76,160.1775   z M76,200.1775c-8.8242,0-16-7.1777-16-16s7.1758-16,16-16s16,7.1777,16,16S84.8242,200.1775,76,200.1775z"/>
	<path fill="#1C71DA" d="M20,128.1775c-11.0273,0-20,8.9727-20,20s8.9727,20,20,20s20-8.9727,20-20S31.0273,128.1775,20,128.1775z    M20,160.1775c-6.6172,0-12-5.3828-12-12s5.3828-12,12-12s12,5.3828,12,12S26.6172,160.1775,20,160.1775z"/>
	<path fill="#1C71DA" d="M16,100.1775c8.8242,0,16-7.1777,16-16s-7.1758-16-16-16s-16,7.1777-16,16S7.1758,100.1775,16,100.1775z    M16,76.1775c4.4102,0,8,3.5879,8,8s-3.5898,8-8,8s-8-3.5879-8-8S11.5898,76.1775,16,76.1775z"/>
</g>
<path fill="#FF5D5D" d="M8.252,32.0012c-1.0234,0-2.0469-0.3906-2.8281-1.1714c-1.5625-1.5625-1.5625-4.0952,0-5.6572  l14.1426-14.1421c1.5605-1.5615,4.0938-1.5615,5.6562,0c1.5625,1.5625,1.5625,4.0952,0,5.6572L11.0801,30.8298  C10.2998,31.6106,9.2754,32.0012,8.252,32.0012z"/>
<path fill="#FF5D5D" d="M22.3945,31.9998c-1.0234,0-2.0479-0.3906-2.8281-1.1714L5.4238,16.6858  c-1.5625-1.5625-1.5625-4.0947,0-5.6572c1.5605-1.5615,4.0957-1.5615,5.6562,0l14.1426,14.1426  c1.5625,1.5625,1.5625,4.0947,0,5.6572C24.4424,31.6091,23.418,31.9998,22.3945,31.9998z"/>
<path fill="#00D40B" d="M66.252,160.0012c-7.7197,0-14-6.2803-14-14s6.2803-14,14-14s14,6.2803,14,14  S73.9717,160.0012,66.252,160.0012z M66.252,140.0012c-3.3086,0-6,2.6914-6,6s2.6914,6,6,6s6-2.6914,6-6  S69.5605,140.0012,66.252,140.0012z"/>
<path fill="#FFC504" d="M163.5664,30.6267c-1.0234,0-2.0469-0.3906-2.8281-1.1714l-11.3145-11.3135  c-0.75-0.75-1.1719-1.7676-1.1719-2.8286s0.4219-2.0786,1.1719-2.8286l11.3145-11.3135c1.5625-1.5615,4.0938-1.5615,5.6562,0  l11.3135,11.3135c1.5625,1.5625,1.5625,4.0947,0,5.6572l-11.3135,11.3135C165.6143,30.2361,164.5898,30.6267,163.5664,30.6267z   M157.9092,15.3132l5.6572,5.6567l5.6562-5.6567l-5.6562-5.6567L157.9092,15.3132z"/>
</svg>
